{
    "asset" : {
        "generator" : "Khronos glTF Blender I/O v1.2.75",
        "version" : "2.0"
    },
    "scene" : 0,
    "scenes" : [
        {
            "name" : "Scene",
            "nodes" : [
                0,
                1,
                4
            ]
        }
    ],
    "nodes" : [
        {
            "name" : "Light",
            "rotation" : [
                0.16907575726509094,
                0.7558803558349609,
                -0.27217137813568115,
                0.570947527885437
            ],
            "translation" : [
                4.076245307922363,
                5.903861999511719,
                -1.0054539442062378
            ]
        },
        {
            "name" : "Camera",
            "rotation" : [
                0.483536034822464,
                0.33687159419059753,
                -0.20870360732078552,
                0.7804827094078064
            ],
            "translation" : [
                7.358891487121582,
                4.958309173583984,
                6.925790786743164
            ]
        },
        {
            "mesh" : 0,
            "name" : "Solid1"
        },
        {
            "children" : [
                2
            ],
            "name" : "WEB075G1010",
            "translation" : [
                -4.888471812591888e-05,
                -0.20382030308246613,
                0.19868715107440948
            ]
        },
        {
            "children" : [
                3
            ],
            "name" : "DST P110 Female flare_WEB075G1010",
            "rotation" : [
                0.4999999701976776,
                0.4999999701976776,
                -0.5000001192092896,
                0.4999999403953552
            ],
            "scale" : [
                0.10000000149011612,
                0.10000000149011612,
                0.10000000149011612
            ],
            "translation" : [
                0.03787999972701073,
                0.14615628123283386,
                0
            ]
        }
    ],
    "materials" : [
        {
            "doubleSided" : true,
            "emissiveFactor" : [
                0,
                0,
                0
            ],
            "name" : "IkeaPlastic",
            "pbrMetallicRoughness" : {
                "baseColorFactor" : [
                    0.0010314880637452006,
                    0.0010314880637452006,
                    0.0010314880637452006,
                    1
                ],
                "metallicFactor" : 0,
                "roughnessFactor" : 0.45899999141693115
            }
        },
        {
            "doubleSided" : true,
            "emissiveFactor" : [
                0,
                0,
                0
            ],
            "name" : "Metal_Anisotropic_simple",
            "pbrMetallicRoughness" : {
                "baseColorFactor" : [
                    0.7454041242599487,
                    0.7681514024734497,
                    0.7681513428688049,
                    1
                ],
                "metallicFactor" : 1,
                "roughnessFactor" : 0.164000004529953
            }
        }
    ],
    "meshes" : [
        {
            "name" : "Mesh",
            "primitives" : [
                {
                    "attributes" : {
                        "POSITION" : 0,
                        "NORMAL" : 1,
                        "TEXCOORD_0" : 2
                    },
                    "indices" : 3,
                    "material" : 0
                },
                {
                    "attributes" : {
                        "POSITION" : 4,
                        "NORMAL" : 5,
                        "TEXCOORD_0" : 6
                    },
                    "indices" : 7,
                    "material" : 1
                }
            ]
        }
    ],
    "accessors" : [
        {
            "bufferView" : 0,
            "componentType" : 5126,
            "count" : 7246,
            "max" : [
                0.4325469732284546,
                0.22877554595470428,
                0.011679312214255333
            ],
            "min" : [
                -0.4331195652484894,
                -0.6447646617889404,
                -0.9056435227394104
            ],
            "type" : "VEC3"
        },
        {
            "bufferView" : 1,
            "componentType" : 5126,
            "count" : 7246,
            "type" : "VEC3"
        },
        {
            "bufferView" : 2,
            "componentType" : 5126,
            "count" : 7246,
            "type" : "VEC2"
        },
        {
            "bufferView" : 3,
            "componentType" : 5123,
            "count" : 26145,
            "type" : "SCALAR"
        },
        {
            "bufferView" : 4,
            "componentType" : 5126,
            "count" : 7938,
            "max" : [
                0.5802955627441406,
                0.32788485288619995,
                1.3030178546905518
            ],
            "min" : [
                -0.5803933143615723,
                -0.7355254292488098,
                -0.492257684469223
            ],
            "type" : "VEC3"
        },
        {
            "bufferView" : 5,
            "componentType" : 5126,
            "count" : 7938,
            "type" : "VEC3"
        },
        {
            "bufferView" : 6,
            "componentType" : 5126,
            "count" : 7938,
            "type" : "VEC2"
        },
        {
            "bufferView" : 7,
            "componentType" : 5123,
            "count" : 15573,
            "type" : "SCALAR"
        }
    ],
    "bufferViews" : [
        {
            "buffer" : 0,
            "byteLength" : 86952,
            "byteOffset" : 0
        },
        {
            "buffer" : 0,
            "byteLength" : 86952,
            "byteOffset" : 86952
        },
        {
            "buffer" : 0,
            "byteLength" : 57968,
            "byteOffset" : 173904
        },
        {
            "buffer" : 0,
            "byteLength" : 52290,
            "byteOffset" : 231872
        },
        {
            "buffer" : 0,
            "byteLength" : 95256,
            "byteOffset" : 284164
        },
        {
            "buffer" : 0,
            "byteLength" : 95256,
            "byteOffset" : 379420
        },
        {
            "buffer" : 0,
            "byteLength" : 63504,
            "byteOffset" : 474676
        },
        {
            "buffer" : 0,
            "byteLength" : 31146,
            "byteOffset" : 538180
        }
    ],
    "buffers" : [
        {
            "byteLength" : 569328,
            "uri" : "data:application/octet-stream;base64,"
        }
    ]
}
