{
    "asset" : {
        "generator" : "Khronos glTF Blender I/O v1.2.75",
        "version" : "2.0"
    },
    "scene" : 0,
    "scenes" : [
        {
            "name" : "Scene",
            "nodes" : [
                0,
                1,
                9
            ]
        }
    ],
    "nodes" : [
        {
            "name" : "Light",
            "rotation" : [
                0.16907575726509094,
                0.7558803558349609,
                -0.27217137813568115,
                0.570947527885437
            ],
            "translation" : [
                4.076245307922363,
                5.903861999511719,
                -1.0054539442062378
            ]
        },
        {
            "name" : "Camera",
            "rotation" : [
                0.483536034822464,
                0.33687159419059753,
                -0.20870360732078552,
                0.7804827094078064
            ],
            "translation" : [
                7.358891487121582,
                4.958309173583984,
                6.925790786743164
            ]
        },
        {
            "mesh" : 0,
            "name" : "brep_1"
        },
        {
            "mesh" : 1,
            "name" : "brep_2"
        },
        {
            "mesh" : 2,
            "name" : "brep_3"
        },
        {
            "mesh" : 3,
            "name" : "brep_4",
            "translation" : [
                0,
                0,
                -0.028901314362883568
            ]
        },
        {
            "mesh" : 4,
            "name" : "brep_5"
        },
        {
            "mesh" : 5,
            "name" : "brep_6",
            "translation" : [
                0,
                0,
                -0.028901314362883568
            ]
        },
        {
            "mesh" : 6,
            "name" : "brep_7"
        },
        {
            "children" : [
                2,
                3,
                4,
                5,
                6,
                7,
                8
            ],
            "name" : "NPNA",
            "rotation" : [
                0.7071068286895752,
                0,
                0,
                0.7071067094802856
            ],
            "scale" : [
                0.10000000149011612,
                0.10000000149011612,
                0.10000000149011612
            ]
        }
    ],
    "materials" : [
        {
            "doubleSided" : true,
            "emissiveFactor" : [
                0,
                0,
                0
            ],
            "name" : "phong1",
            "pbrMetallicRoughness" : {
                "baseColorFactor" : [
                    0.6431372761726379,
                    0.6431372761726379,
                    0.6431372761726379,
                    1
                ],
                "metallicFactor" : 0.5,
                "roughnessFactor" : 0
            }
        },
        {
            "doubleSided" : true,
            "emissiveFactor" : [
                0,
                0,
                0
            ],
            "name" : "HalfWhite",
            "pbrMetallicRoughness" : {
                "baseColorFactor" : [
                    1,
                    1,
                    1,
                    1
                ],
                "metallicFactor" : 0,
                "roughnessFactor" : 0.27272728085517883
            }
        },
        {
            "doubleSided" : true,
            "emissiveFactor" : [
                0,
                0,
                0
            ],
            "name" : "BrownWire",
            "pbrMetallicRoughness" : {
                "baseColorFactor" : [
                    0.13013656437397003,
                    0.05612848326563835,
                    0.015208524651825428,
                    1
                ],
                "metallicFactor" : 0,
                "roughnessFactor" : 0.5
            }
        },
        {
            "doubleSided" : true,
            "emissiveFactor" : [
                0,
                0,
                0
            ],
            "name" : "Copper",
            "pbrMetallicRoughness" : {
                "baseColorFactor" : [
                    0.4793202877044678,
                    0.17144112288951874,
                    0.0331047959625721,
                    1
                ],
                "metallicFactor" : 1,
                "roughnessFactor" : 0.343137264251709
            }
        },
        {
            "doubleSided" : true,
            "emissiveFactor" : [
                0,
                0,
                0
            ],
            "name" : "BlueWire",
            "pbrMetallicRoughness" : {
                "baseColorFactor" : [
                    0,
                    0,
                    1,
                    1
                ],
                "metallicFactor" : 0,
                "roughnessFactor" : 0.5181819796562195
            }
        }
    ],
    "meshes" : [
        {
            "name" : "Mesh.006",
            "primitives" : [
                {
                    "attributes" : {
                        "POSITION" : 0,
                        "NORMAL" : 1,
                        "TEXCOORD_0" : 2
                    },
                    "indices" : 3,
                    "material" : 0
                }
            ]
        },
        {
            "name" : "Mesh.005",
            "primitives" : [
                {
                    "attributes" : {
                        "POSITION" : 4,
                        "NORMAL" : 5,
                        "TEXCOORD_0" : 6
                    },
                    "indices" : 7,
                    "material" : 1
                }
            ]
        },
        {
            "name" : "Mesh.004",
            "primitives" : [
                {
                    "attributes" : {
                        "POSITION" : 8,
                        "NORMAL" : 9,
                        "TEXCOORD_0" : 10
                    },
                    "indices" : 11,
                    "material" : 2
                }
            ]
        },
        {
            "name" : "Mesh.003",
            "primitives" : [
                {
                    "attributes" : {
                        "POSITION" : 12,
                        "NORMAL" : 13,
                        "TEXCOORD_0" : 14
                    },
                    "indices" : 15,
                    "material" : 3
                }
            ]
        },
        {
            "name" : "Mesh.002",
            "primitives" : [
                {
                    "attributes" : {
                        "POSITION" : 16,
                        "NORMAL" : 17,
                        "TEXCOORD_0" : 18
                    },
                    "indices" : 19,
                    "material" : 4
                }
            ]
        },
        {
            "name" : "Mesh.001",
            "primitives" : [
                {
                    "attributes" : {
                        "POSITION" : 20,
                        "NORMAL" : 21,
                        "TEXCOORD_0" : 22
                    },
                    "indices" : 23,
                    "material" : 3
                }
            ]
        },
        {
            "name" : "Mesh",
            "primitives" : [
                {
                    "attributes" : {
                        "POSITION" : 24,
                        "NORMAL" : 25,
                        "TEXCOORD_0" : 26
                    },
                    "indices" : 27,
                    "material" : 1
                }
            ]
        }
    ],
    "accessors" : [
        {
            "bufferView" : 0,
            "componentType" : 5126,
            "count" : 553,
            "max" : [
                0.22791510820388794,
                8.660673141479492,
                0.2285533845424652
            ],
            "min" : [
                -0.227913498878479,
                8.595434188842773,
                -0.2285533845424652
            ],
            "type" : "VEC3"
        },
        {
            "bufferView" : 1,
            "componentType" : 5126,
            "count" : 553,
            "type" : "VEC3"
        },
        {
            "bufferView" : 2,
            "componentType" : 5126,
            "count" : 553,
            "type" : "VEC2"
        },
        {
            "bufferView" : 3,
            "componentType" : 5123,
            "count" : 2580,
            "type" : "SCALAR"
        },
        {
            "bufferView" : 4,
            "componentType" : 5126,
            "count" : 997,
            "max" : [
                0.2984743118286133,
                10.660673141479492,
                0.2999630570411682
            ],
            "min" : [
                -0.2984861731529236,
                8.660672187805176,
                -0.2999630570411682
            ],
            "type" : "VEC3"
        },
        {
            "bufferView" : 5,
            "componentType" : 5126,
            "count" : 997,
            "type" : "VEC3"
        },
        {
            "bufferView" : 6,
            "componentType" : 5126,
            "count" : 997,
            "type" : "VEC2"
        },
        {
            "bufferView" : 7,
            "componentType" : 5123,
            "count" : 4764,
            "type" : "SCALAR"
        },
        {
            "bufferView" : 8,
            "componentType" : 5126,
            "count" : 444,
            "max" : [
                0.033059120178222656,
                -6.860071182250977,
                0.07614490389823914
            ],
            "min" : [
                -0.8009190559387207,
                -9.936986923217773,
                -0.07438375800848007
            ],
            "type" : "VEC3"
        },
        {
            "bufferView" : 9,
            "componentType" : 5126,
            "count" : 444,
            "type" : "VEC3"
        },
        {
            "bufferView" : 10,
            "componentType" : 5126,
            "count" : 444,
            "type" : "VEC2"
        },
        {
            "bufferView" : 11,
            "componentType" : 5123,
            "count" : 2340,
            "type" : "SCALAR"
        },
        {
            "bufferView" : 12,
            "componentType" : 5126,
            "count" : 2583,
            "max" : [
                0.844489574432373,
                -9.704192161560059,
                0.13211992383003235
            ],
            "min" : [
                0.607203483581543,
                -10.660673141479492,
                -0.0526120625436306
            ],
            "type" : "VEC3"
        },
        {
            "bufferView" : 13,
            "componentType" : 5126,
            "count" : 2583,
            "type" : "VEC3"
        },
        {
            "bufferView" : 14,
            "componentType" : 5126,
            "count" : 2583,
            "type" : "VEC2"
        },
        {
            "bufferView" : 15,
            "componentType" : 5123,
            "count" : 12330,
            "type" : "SCALAR"
        },
        {
            "bufferView" : 16,
            "componentType" : 5126,
            "count" : 421,
            "max" : [
                0.8020429611206055,
                -6.860071659088135,
                0.07552734762430191
            ],
            "min" : [
                -0.03193521499633789,
                -9.936986923217773,
                -0.07500145584344864
            ],
            "type" : "VEC3"
        },
        {
            "bufferView" : 17,
            "componentType" : 5126,
            "count" : 421,
            "type" : "VEC3"
        },
        {
            "bufferView" : 18,
            "componentType" : 5126,
            "count" : 421,
            "type" : "VEC2"
        },
        {
            "bufferView" : 19,
            "componentType" : 5123,
            "count" : 2208,
            "type" : "SCALAR"
        },
        {
            "bufferView" : 20,
            "componentType" : 5126,
            "count" : 3012,
            "max" : [
                -0.607203483581543,
                -9.704192161560059,
                0.13211984932422638
            ],
            "min" : [
                -0.8444900512695312,
                -10.660673141479492,
                -0.052612125873565674
            ],
            "type" : "VEC3"
        },
        {
            "bufferView" : 21,
            "componentType" : 5126,
            "count" : 3012,
            "type" : "VEC3"
        },
        {
            "bufferView" : 22,
            "componentType" : 5126,
            "count" : 3012,
            "type" : "VEC2"
        },
        {
            "bufferView" : 23,
            "componentType" : 5123,
            "count" : 14916,
            "type" : "SCALAR"
        },
        {
            "bufferView" : 24,
            "componentType" : 5126,
            "count" : 76,
            "max" : [
                0.16000083088874817,
                8.638507843017578,
                0.15756922960281372
            ],
            "min" : [
                -0.15999984741210938,
                -7.212423801422119,
                -0.15756922960281372
            ],
            "type" : "VEC3"
        },
        {
            "bufferView" : 25,
            "componentType" : 5126,
            "count" : 76,
            "type" : "VEC3"
        },
        {
            "bufferView" : 26,
            "componentType" : 5126,
            "count" : 76,
            "type" : "VEC2"
        },
        {
            "bufferView" : 27,
            "componentType" : 5123,
            "count" : 204,
            "type" : "SCALAR"
        }
    ],
    "bufferViews" : [
        {
            "buffer" : 0,
            "byteLength" : 6636,
            "byteOffset" : 0
        },
        {
            "buffer" : 0,
            "byteLength" : 6636,
            "byteOffset" : 6636
        },
        {
            "buffer" : 0,
            "byteLength" : 4424,
            "byteOffset" : 13272
        },
        {
            "buffer" : 0,
            "byteLength" : 5160,
            "byteOffset" : 17696
        },
        {
            "buffer" : 0,
            "byteLength" : 11964,
            "byteOffset" : 22856
        },
        {
            "buffer" : 0,
            "byteLength" : 11964,
            "byteOffset" : 34820
        },
        {
            "buffer" : 0,
            "byteLength" : 7976,
            "byteOffset" : 46784
        },
        {
            "buffer" : 0,
            "byteLength" : 9528,
            "byteOffset" : 54760
        },
        {
            "buffer" : 0,
            "byteLength" : 5328,
            "byteOffset" : 64288
        },
        {
            "buffer" : 0,
            "byteLength" : 5328,
            "byteOffset" : 69616
        },
        {
            "buffer" : 0,
            "byteLength" : 3552,
            "byteOffset" : 74944
        },
        {
            "buffer" : 0,
            "byteLength" : 4680,
            "byteOffset" : 78496
        },
        {
            "buffer" : 0,
            "byteLength" : 30996,
            "byteOffset" : 83176
        },
        {
            "buffer" : 0,
            "byteLength" : 30996,
            "byteOffset" : 114172
        },
        {
            "buffer" : 0,
            "byteLength" : 20664,
            "byteOffset" : 145168
        },
        {
            "buffer" : 0,
            "byteLength" : 24660,
            "byteOffset" : 165832
        },
        {
            "buffer" : 0,
            "byteLength" : 5052,
            "byteOffset" : 190492
        },
        {
            "buffer" : 0,
            "byteLength" : 5052,
            "byteOffset" : 195544
        },
        {
            "buffer" : 0,
            "byteLength" : 3368,
            "byteOffset" : 200596
        },
        {
            "buffer" : 0,
            "byteLength" : 4416,
            "byteOffset" : 203964
        },
        {
            "buffer" : 0,
            "byteLength" : 36144,
            "byteOffset" : 208380
        },
        {
            "buffer" : 0,
            "byteLength" : 36144,
            "byteOffset" : 244524
        },
        {
            "buffer" : 0,
            "byteLength" : 24096,
            "byteOffset" : 280668
        },
        {
            "buffer" : 0,
            "byteLength" : 29832,
            "byteOffset" : 304764
        },
        {
            "buffer" : 0,
            "byteLength" : 912,
            "byteOffset" : 334596
        },
        {
            "buffer" : 0,
            "byteLength" : 912,
            "byteOffset" : 335508
        },
        {
            "buffer" : 0,
            "byteLength" : 608,
            "byteOffset" : 336420
        },
        {
            "buffer" : 0,
            "byteLength" : 408,
            "byteOffset" : 337028
        }
    ],
    "buffers" : [
        {
            "byteLength" : 337436,
            "uri" : "data:application/octet-stream;base64,"
        }
    ]
}
