{
    "asset" : {
        "generator" : "Khronos glTF Blender I/O v1.2.75",
        "version" : "2.0"
    },
    "scene" : 0,
    "scenes" : [
        {
            "name" : "Scene",
            "nodes" : [
                0,
                1,
                4
            ]
        }
    ],
    "nodes" : [
        {
            "name" : "Light",
            "rotation" : [
                0.16907575726509094,
                0.7558803558349609,
                -0.27217137813568115,
                0.570947527885437
            ],
            "translation" : [
                4.076245307922363,
                5.903861999511719,
                -1.0054539442062378
            ]
        },
        {
            "name" : "Camera",
            "rotation" : [
                0.483536034822464,
                0.33687159419059753,
                -0.20870360732078552,
                0.7804827094078064
            ],
            "translation" : [
                7.358891487121582,
                4.958309173583984,
                6.925790786743164
            ]
        },
        {
            "mesh" : 0,
            "name" : "Solid1"
        },
        {
            "children" : [
                2
            ],
            "name" : "WEB075G4050",
            "translation" : [
                0,
                0,
                0.20614171028137207
            ]
        },
        {
            "children" : [
                3
            ],
            "name" : "DST P110 Solder tube_WEB075G4050",
            "rotation" : [
                0.4999999701976776,
                0.4999999701976776,
                -0.5000001192092896,
                0.4999999403953552
            ],
            "scale" : [
                0.10000000149011612,
                0.10000000149011612,
                0.10000000149011612
            ],
            "translation" : [
                0,
                0.1899503916501999,
                0
            ]
        }
    ],
    "materials" : [
        {
            "doubleSided" : true,
            "emissiveFactor" : [
                0,
                0,
                0
            ],
            "name" : "IkeaPlastic",
            "pbrMetallicRoughness" : {
                "baseColorFactor" : [
                    0.003642135765403509,
                    0.003642135765403509,
                    0.003642135765403509,
                    1
                ],
                "metallicFactor" : 0,
                "roughnessFactor" : 0.45899999141693115
            }
        },
        {
            "doubleSided" : true,
            "emissiveFactor" : [
                0,
                0,
                0
            ],
            "name" : "Metal_Anisotropic_simple",
            "pbrMetallicRoughness" : {
                "baseColorFactor" : [
                    0.7454041242599487,
                    0.7681514024734497,
                    0.7681513428688049,
                    1
                ],
                "metallicFactor" : 1,
                "roughnessFactor" : 0.164000004529953
            }
        },
        {
            "doubleSided" : true,
            "emissiveFactor" : [
                0,
                0,
                0
            ],
            "name" : "BMD_Brass_0024",
            "pbrMetallicRoughness" : {
                "baseColorFactor" : [
                    0.715694010257721,
                    0.2363063246011734,
                    0.047299131751060486,
                    1
                ],
                "metallicFactor" : 1,
                "roughnessFactor" : 0.22727276384830475
            }
        }
    ],
    "meshes" : [
        {
            "name" : "Mesh",
            "primitives" : [
                {
                    "attributes" : {
                        "POSITION" : 0,
                        "NORMAL" : 1,
                        "TEXCOORD_0" : 2
                    },
                    "indices" : 3,
                    "material" : 0
                },
                {
                    "attributes" : {
                        "POSITION" : 4,
                        "NORMAL" : 5,
                        "TEXCOORD_0" : 6
                    },
                    "indices" : 7,
                    "material" : 1
                },
                {
                    "attributes" : {
                        "POSITION" : 8,
                        "NORMAL" : 9,
                        "TEXCOORD_0" : 10
                    },
                    "indices" : 11,
                    "material" : 2
                }
            ]
        }
    ],
    "accessors" : [
        {
            "bufferView" : 0,
            "componentType" : 5126,
            "count" : 7183,
            "max" : [
                0.4330708682537079,
                0.4409448206424713,
                -0.3647676408290863
            ],
            "min" : [
                -0.4330708682537079,
                -0.43259599804878235,
                -1.2672834396362305
            ],
            "type" : "VEC3"
        },
        {
            "bufferView" : 1,
            "componentType" : 5126,
            "count" : 7183,
            "type" : "VEC3"
        },
        {
            "bufferView" : 2,
            "componentType" : 5126,
            "count" : 7183,
            "type" : "VEC2"
        },
        {
            "bufferView" : 3,
            "componentType" : 5123,
            "count" : 25968,
            "type" : "SCALAR"
        },
        {
            "bufferView" : 4,
            "componentType" : 5126,
            "count" : 5368,
            "max" : [
                0.5803258419036865,
                0.5314960479736328,
                0.5575196743011475
            ],
            "min" : [
                -0.5803258419036865,
                -0.5314960479736328,
                -0.8538976907730103
            ],
            "type" : "VEC3"
        },
        {
            "bufferView" : 5,
            "componentType" : 5126,
            "count" : 5368,
            "type" : "VEC3"
        },
        {
            "bufferView" : 6,
            "componentType" : 5126,
            "count" : 5368,
            "type" : "VEC2"
        },
        {
            "bufferView" : 7,
            "componentType" : 5123,
            "count" : 13152,
            "type" : "SCALAR"
        },
        {
            "bufferView" : 8,
            "componentType" : 5126,
            "count" : 1186,
            "max" : [
                0.3051181137561798,
                0.30201244354248047,
                1.6795668601989746
            ],
            "min" : [
                -0.3051181137561798,
                -0.30201244354248047,
                0.5575196743011475
            ],
            "type" : "VEC3"
        },
        {
            "bufferView" : 9,
            "componentType" : 5126,
            "count" : 1186,
            "type" : "VEC3"
        },
        {
            "bufferView" : 10,
            "componentType" : 5126,
            "count" : 1186,
            "type" : "VEC2"
        },
        {
            "bufferView" : 11,
            "componentType" : 5123,
            "count" : 4632,
            "type" : "SCALAR"
        }
    ],
    "bufferViews" : [
        {
            "buffer" : 0,
            "byteLength" : 86196,
            "byteOffset" : 0
        },
        {
            "buffer" : 0,
            "byteLength" : 86196,
            "byteOffset" : 86196
        },
        {
            "buffer" : 0,
            "byteLength" : 57464,
            "byteOffset" : 172392
        },
        {
            "buffer" : 0,
            "byteLength" : 51936,
            "byteOffset" : 229856
        },
        {
            "buffer" : 0,
            "byteLength" : 64416,
            "byteOffset" : 281792
        },
        {
            "buffer" : 0,
            "byteLength" : 64416,
            "byteOffset" : 346208
        },
        {
            "buffer" : 0,
            "byteLength" : 42944,
            "byteOffset" : 410624
        },
        {
            "buffer" : 0,
            "byteLength" : 26304,
            "byteOffset" : 453568
        },
        {
            "buffer" : 0,
            "byteLength" : 14232,
            "byteOffset" : 479872
        },
        {
            "buffer" : 0,
            "byteLength" : 14232,
            "byteOffset" : 494104
        },
        {
            "buffer" : 0,
            "byteLength" : 9488,
            "byteOffset" : 508336
        },
        {
            "buffer" : 0,
            "byteLength" : 9264,
            "byteOffset" : 517824
        }
    ],
    "buffers" : [
        {
            "byteLength" : 527088,
            "uri" : "data:application/octet-stream;base64,"
        }
    ]
}
