{
    "asset" : {
        "generator" : "Khronos glTF Blender I/O v1.2.75",
        "version" : "2.0"
    },
    "scene" : 0,
    "scenes" : [
        {
            "name" : "Scene",
            "nodes" : [
                0,
                1,
                5
            ]
        }
    ],
    "nodes" : [
        {
            "name" : "Light",
            "rotation" : [
                0.16907575726509094,
                0.7558803558349609,
                -0.27217137813568115,
                0.570947527885437
            ],
            "translation" : [
                4.076245307922363,
                5.903861999511719,
                -1.0054539442062378
            ]
        },
        {
            "name" : "Camera",
            "rotation" : [
                0.483536034822464,
                0.33687159419059753,
                -0.20870360732078552,
                0.7804827094078064
            ],
            "translation" : [
                7.358891487121582,
                4.958309173583984,
                6.925790786743164
            ]
        },
        {
            "mesh" : 0,
            "name" : "Solid1"
        },
        {
            "mesh" : 1,
            "name" : "Solid1.001"
        },
        {
            "mesh" : 2,
            "name" : "Solid1.002"
        },
        {
            "children" : [
                2,
                3,
                4
            ],
            "name" : "group1",
            "rotation" : [
                0.7071068286895752,
                0,
                0,
                0.7071067094802856
            ],
            "scale" : [
                0.05000000074505806,
                0.05000000074505806,
                0.05000000074505806
            ],
            "translation" : [
                0,
                1.3030304908752441,
                0
            ]
        }
    ],
    "materials" : [
        {
            "doubleSided" : true,
            "emissiveFactor" : [
                0,
                0,
                0
            ],
            "name" : "Steel",
            "pbrMetallicRoughness" : {
                "baseColorFactor" : [
                    1,
                    0.9906237721443176,
                    0.9298752546310425,
                    1
                ],
                "metallicFactor" : 1,
                "roughnessFactor" : 0.2639999985694885
            }
        },
        {
            "doubleSided" : true,
            "emissiveFactor" : [
                0,
                0,
                0
            ],
            "name" : "White",
            "pbrMetallicRoughness" : {
                "baseColorFactor" : [
                    1,
                    1,
                    1,
                    1
                ],
                "metallicFactor" : 0,
                "roughnessFactor" : 0.5
            }
        },
        {
            "doubleSided" : true,
            "emissiveFactor" : [
                0,
                0,
                0
            ],
            "name" : "phong6",
            "pbrMetallicRoughness" : {
                "baseColorFactor" : [
                    1,
                    1,
                    1,
                    1
                ],
                "metallicFactor" : 1,
                "roughnessFactor" : 0.38181817531585693
            }
        },
        {
            "doubleSided" : true,
            "emissiveFactor" : [
                0,
                0,
                0
            ],
            "name" : "Red-SmallWire",
            "pbrMetallicRoughness" : {
                "baseColorFactor" : [
                    0.3587501645088196,
                    0,
                    0,
                    1
                ],
                "metallicFactor" : 0.03181818127632141,
                "roughnessFactor" : 0.3636363744735718
            }
        },
        {
            "doubleSided" : true,
            "emissiveFactor" : [
                0,
                0,
                0
            ],
            "name" : "Red-Wire",
            "pbrMetallicRoughness" : {
                "baseColorFactor" : [
                    0.5119537711143494,
                    0.03141734004020691,
                    0.03255245462059975,
                    1
                ],
                "metallicFactor" : 0.4000000059604645,
                "roughnessFactor" : 0.5
            }
        },
        {
            "doubleSided" : true,
            "emissiveFactor" : [
                0,
                0,
                0
            ],
            "name" : "phong2",
            "pbrMetallicRoughness" : {
                "baseColorFactor" : [
                    1,
                    1,
                    1,
                    1
                ],
                "metallicFactor" : 0.5,
                "roughnessFactor" : 0.8999999761581421
            }
        },
        {
            "doubleSided" : true,
            "emissiveFactor" : [
                0,
                0,
                0
            ],
            "name" : "phong3",
            "pbrMetallicRoughness" : {
                "baseColorFactor" : [
                    1,
                    0,
                    0,
                    1
                ],
                "metallicFactor" : 0.5,
                "roughnessFactor" : 0.8999999761581421
            }
        }
    ],
    "meshes" : [
        {
            "name" : "Mesh",
            "primitives" : [
                {
                    "attributes" : {
                        "POSITION" : 0,
                        "NORMAL" : 1,
                        "TEXCOORD_0" : 2
                    },
                    "indices" : 3,
                    "material" : 0
                }
            ]
        },
        {
            "name" : "Mesh.001",
            "primitives" : [
                {
                    "attributes" : {
                        "POSITION" : 4,
                        "NORMAL" : 5,
                        "TEXCOORD_0" : 6
                    },
                    "indices" : 7,
                    "material" : 1
                }
            ]
        },
        {
            "name" : "Mesh.002",
            "primitives" : [
                {
                    "attributes" : {
                        "POSITION" : 8,
                        "NORMAL" : 9,
                        "TEXCOORD_0" : 10
                    },
                    "indices" : 11,
                    "material" : 2
                },
                {
                    "attributes" : {
                        "POSITION" : 12,
                        "NORMAL" : 13,
                        "TEXCOORD_0" : 14
                    },
                    "indices" : 15,
                    "material" : 0
                },
                {
                    "attributes" : {
                        "POSITION" : 16,
                        "NORMAL" : 17,
                        "TEXCOORD_0" : 18
                    },
                    "indices" : 19,
                    "material" : 3
                },
                {
                    "attributes" : {
                        "POSITION" : 20,
                        "NORMAL" : 21,
                        "TEXCOORD_0" : 22
                    },
                    "indices" : 23,
                    "material" : 4
                },
                {
                    "attributes" : {
                        "POSITION" : 24,
                        "NORMAL" : 25,
                        "TEXCOORD_0" : 26
                    },
                    "indices" : 27,
                    "material" : 5
                },
                {
                    "attributes" : {
                        "POSITION" : 28,
                        "NORMAL" : 29,
                        "TEXCOORD_0" : 30
                    },
                    "indices" : 31,
                    "material" : 6
                },
                {
                    "attributes" : {
                        "POSITION" : 32,
                        "NORMAL" : 33,
                        "TEXCOORD_0" : 34
                    },
                    "indices" : 35,
                    "material" : 4
                }
            ]
        }
    ],
    "accessors" : [
        {
            "bufferView" : 0,
            "componentType" : 5126,
            "count" : 1037,
            "max" : [
                0.2823180854320526,
                0.2806110978126526,
                -21.749998092651367
            ],
            "min" : [
                -0.28171688318252563,
                -0.2834264039993286,
                -25.749998092651367
            ],
            "type" : "VEC3"
        },
        {
            "bufferView" : 1,
            "componentType" : 5126,
            "count" : 1037,
            "type" : "VEC3"
        },
        {
            "bufferView" : 2,
            "componentType" : 5126,
            "count" : 1037,
            "type" : "VEC2"
        },
        {
            "bufferView" : 3,
            "componentType" : 5123,
            "count" : 3546,
            "type" : "SCALAR"
        },
        {
            "bufferView" : 4,
            "componentType" : 5126,
            "count" : 184,
            "max" : [
                0.2597840428352356,
                0.2572917342185974,
                -7.749998092651367
            ],
            "min" : [
                -0.25890690088272095,
                -0.2608758211135864,
                -10.249999046325684
            ],
            "type" : "VEC3"
        },
        {
            "bufferView" : 5,
            "componentType" : 5126,
            "count" : 184,
            "type" : "VEC3"
        },
        {
            "bufferView" : 6,
            "componentType" : 5126,
            "count" : 184,
            "type" : "VEC2"
        },
        {
            "bufferView" : 7,
            "componentType" : 5123,
            "count" : 540,
            "type" : "SCALAR"
        },
        {
            "bufferView" : 8,
            "componentType" : 5126,
            "count" : 648,
            "max" : [
                0.1167808473110199,
                0.03167152404785156,
                25.749998092651367
            ],
            "min" : [
                -0.1152191311120987,
                -0.03353309631347656,
                24.949996948242188
            ],
            "type" : "VEC3"
        },
        {
            "bufferView" : 9,
            "componentType" : 5126,
            "count" : 648,
            "type" : "VEC3"
        },
        {
            "bufferView" : 10,
            "componentType" : 5126,
            "count" : 648,
            "type" : "VEC2"
        },
        {
            "bufferView" : 11,
            "componentType" : 5123,
            "count" : 1326,
            "type" : "SCALAR"
        },
        {
            "bufferView" : 12,
            "componentType" : 5126,
            "count" : 578,
            "max" : [
                0.14078092575073242,
                0.05906867980957031,
                25.749998092651367
            ],
            "min" : [
                -0.1152191311120987,
                -0.06093025207519531,
                24.249996185302734
            ],
            "type" : "VEC3"
        },
        {
            "bufferView" : 13,
            "componentType" : 5126,
            "count" : 578,
            "type" : "VEC3"
        },
        {
            "bufferView" : 14,
            "componentType" : 5126,
            "count" : 578,
            "type" : "VEC2"
        },
        {
            "bufferView" : 15,
            "componentType" : 5123,
            "count" : 1422,
            "type" : "SCALAR"
        },
        {
            "bufferView" : 16,
            "componentType" : 5126,
            "count" : 218,
            "max" : [
                -0.01921907067298889,
                0.05906867980957031,
                24.94999885559082
            ],
            "min" : [
                -0.13921910524368286,
                -0.06093025207519531,
                24.249996185302734
            ],
            "type" : "VEC3"
        },
        {
            "bufferView" : 17,
            "componentType" : 5126,
            "count" : 218,
            "type" : "VEC3"
        },
        {
            "bufferView" : 18,
            "componentType" : 5126,
            "count" : 218,
            "type" : "VEC2"
        },
        {
            "bufferView" : 19,
            "componentType" : 5123,
            "count" : 564,
            "type" : "SCALAR"
        },
        {
            "bufferView" : 20,
            "componentType" : 5126,
            "count" : 372,
            "max" : [
                0.2457830011844635,
                0.24035395681858063,
                24.249998092651367
            ],
            "min" : [
                -0.24421906471252441,
                -0.24220848083496094,
                -24.329999923706055
            ],
            "type" : "VEC3"
        },
        {
            "bufferView" : 21,
            "componentType" : 5126,
            "count" : 372,
            "type" : "VEC3"
        },
        {
            "bufferView" : 22,
            "componentType" : 5126,
            "count" : 372,
            "type" : "VEC2"
        },
        {
            "bufferView" : 23,
            "componentType" : 5123,
            "count" : 1080,
            "type" : "SCALAR"
        },
        {
            "bufferView" : 24,
            "componentType" : 5126,
            "count" : 276,
            "max" : [
                0.17078301310539246,
                0.058787181973457336,
                -23.599998474121094
            ],
            "min" : [
                0.020783014595508575,
                -0.06092389300465584,
                -23.93000030517578
            ],
            "type" : "VEC3"
        },
        {
            "bufferView" : 25,
            "componentType" : 5126,
            "count" : 276,
            "type" : "VEC3"
        },
        {
            "bufferView" : 26,
            "componentType" : 5126,
            "count" : 276,
            "type" : "VEC2"
        },
        {
            "bufferView" : 27,
            "componentType" : 5123,
            "count" : 900,
            "type" : "SCALAR"
        },
        {
            "bufferView" : 28,
            "componentType" : 5126,
            "count" : 276,
            "max" : [
                -0.019216980785131454,
                0.05878717824816704,
                -23.599998474121094
            ],
            "min" : [
                -0.16921696066856384,
                -0.06092389300465584,
                -23.93000030517578
            ],
            "type" : "VEC3"
        },
        {
            "bufferView" : 29,
            "componentType" : 5126,
            "count" : 276,
            "type" : "VEC3"
        },
        {
            "bufferView" : 30,
            "componentType" : 5126,
            "count" : 276,
            "type" : "VEC2"
        },
        {
            "bufferView" : 31,
            "componentType" : 5123,
            "count" : 900,
            "type" : "SCALAR"
        },
        {
            "bufferView" : 32,
            "componentType" : 5126,
            "count" : 38,
            "max" : [
                0.24578291177749634,
                0.24035370349884033,
                24.249998092651367
            ],
            "min" : [
                -0.24421906471252441,
                -0.24220848083496094,
                -21.75
            ],
            "type" : "VEC3"
        },
        {
            "bufferView" : 33,
            "componentType" : 5126,
            "count" : 38,
            "type" : "VEC3"
        },
        {
            "bufferView" : 34,
            "componentType" : 5126,
            "count" : 38,
            "type" : "VEC2"
        },
        {
            "bufferView" : 35,
            "componentType" : 5123,
            "count" : 108,
            "type" : "SCALAR"
        }
    ],
    "bufferViews" : [
        {
            "buffer" : 0,
            "byteLength" : 12444,
            "byteOffset" : 0
        },
        {
            "buffer" : 0,
            "byteLength" : 12444,
            "byteOffset" : 12444
        },
        {
            "buffer" : 0,
            "byteLength" : 8296,
            "byteOffset" : 24888
        },
        {
            "buffer" : 0,
            "byteLength" : 7092,
            "byteOffset" : 33184
        },
        {
            "buffer" : 0,
            "byteLength" : 2208,
            "byteOffset" : 40276
        },
        {
            "buffer" : 0,
            "byteLength" : 2208,
            "byteOffset" : 42484
        },
        {
            "buffer" : 0,
            "byteLength" : 1472,
            "byteOffset" : 44692
        },
        {
            "buffer" : 0,
            "byteLength" : 1080,
            "byteOffset" : 46164
        },
        {
            "buffer" : 0,
            "byteLength" : 7776,
            "byteOffset" : 47244
        },
        {
            "buffer" : 0,
            "byteLength" : 7776,
            "byteOffset" : 55020
        },
        {
            "buffer" : 0,
            "byteLength" : 5184,
            "byteOffset" : 62796
        },
        {
            "buffer" : 0,
            "byteLength" : 2652,
            "byteOffset" : 67980
        },
        {
            "buffer" : 0,
            "byteLength" : 6936,
            "byteOffset" : 70632
        },
        {
            "buffer" : 0,
            "byteLength" : 6936,
            "byteOffset" : 77568
        },
        {
            "buffer" : 0,
            "byteLength" : 4624,
            "byteOffset" : 84504
        },
        {
            "buffer" : 0,
            "byteLength" : 2844,
            "byteOffset" : 89128
        },
        {
            "buffer" : 0,
            "byteLength" : 2616,
            "byteOffset" : 91972
        },
        {
            "buffer" : 0,
            "byteLength" : 2616,
            "byteOffset" : 94588
        },
        {
            "buffer" : 0,
            "byteLength" : 1744,
            "byteOffset" : 97204
        },
        {
            "buffer" : 0,
            "byteLength" : 1128,
            "byteOffset" : 98948
        },
        {
            "buffer" : 0,
            "byteLength" : 4464,
            "byteOffset" : 100076
        },
        {
            "buffer" : 0,
            "byteLength" : 4464,
            "byteOffset" : 104540
        },
        {
            "buffer" : 0,
            "byteLength" : 2976,
            "byteOffset" : 109004
        },
        {
            "buffer" : 0,
            "byteLength" : 2160,
            "byteOffset" : 111980
        },
        {
            "buffer" : 0,
            "byteLength" : 3312,
            "byteOffset" : 114140
        },
        {
            "buffer" : 0,
            "byteLength" : 3312,
            "byteOffset" : 117452
        },
        {
            "buffer" : 0,
            "byteLength" : 2208,
            "byteOffset" : 120764
        },
        {
            "buffer" : 0,
            "byteLength" : 1800,
            "byteOffset" : 122972
        },
        {
            "buffer" : 0,
            "byteLength" : 3312,
            "byteOffset" : 124772
        },
        {
            "buffer" : 0,
            "byteLength" : 3312,
            "byteOffset" : 128084
        },
        {
            "buffer" : 0,
            "byteLength" : 2208,
            "byteOffset" : 131396
        },
        {
            "buffer" : 0,
            "byteLength" : 1800,
            "byteOffset" : 133604
        },
        {
            "buffer" : 0,
            "byteLength" : 456,
            "byteOffset" : 135404
        },
        {
            "buffer" : 0,
            "byteLength" : 456,
            "byteOffset" : 135860
        },
        {
            "buffer" : 0,
            "byteLength" : 304,
            "byteOffset" : 136316
        },
        {
            "buffer" : 0,
            "byteLength" : 216,
            "byteOffset" : 136620
        }
    ],
    "buffers" : [
        {
            "byteLength" : 136836,
            "uri" : "data:application/octet-stream;base64,"
        }
    ]
}
